PathFileType	4	(X/Y/Z)	s01c0302.trc
DataRate	CameraRate	NumFrames	NumMarkers	Units	OrigDataRate	OrigDataStartFrame	OrigNumFrames
200	200	4	48	mm	200	1500	2000
Frame#	Time	racr			lacr			c7			jug			rlel			rdr			llel			ldr			s2			lic			ric			lasi			rasi			rpsi			lpsi			rgt			lgt			rth1			rth2			rth3			rth4			rlfc			rsh1			rsh2			rsh3			rsh4			rlmal			rmmal			rcal			rtoe			rmt5			lth1			lth2			lth4			lth3			llfc			lsh1			lsh2			lsh3			lsh4			llmal			lmmal			lcal			ltoe			lmt5			SBIKE			LBIKE			RBIKE			
		X1	Y1	Z1	X2	Y2	Z2	X3	Y3	Z3	X4	Y4	Z4	X5	Y5	Z5	X6	Y6	Z6	X7	Y7	Z7	X8	Y8	Z8	X9	Y9	Z9	X10	Y10	Z10	X11	Y11	Z11	X12	Y12	Z12	X13	Y13	Z13	X14	Y14	Z14	X15	Y15	Z15	X16	Y16	Z16	X17	Y17	Z17	X18	Y18	Z18	X19	Y19	Z19	X20	Y20	Z20	X21	Y21	Z21	X22	Y22	Z22	X23	Y23	Z23	X24	Y24	Z24	X25	Y25	Z25	X26	Y26	Z26	X27	Y27	Z27	X28	Y28	Z28	X29	Y29	Z29	X30	Y30	Z30	X31	Y31	Z31	X32	Y32	Z32	X33	Y33	Z33	X34	Y34	Z34	X35	Y35	Z35	X36	Y36	Z36	X37	Y37	Z37	X38	Y38	Z38	X39	Y39	Z39	X40	Y40	Z40	X41	Y41	Z41	X42	Y42	Z42	X43	Y43	Z43	X44	Y44	Z44	X45	Y45	Z45	X46	Y46	Z46	X47	Y47	Z47	X48	Y48	Z48	
1500	7.5000	728.394320	1358.851742	-132.576991	711.826225	1342.893203	-466.723713	686.370778	1429.558538	-290.622215	677.482152	1268.528635	-296.409980	657.378828	1087.700622	-16.076336	737.347698	853.933857	-85.018666	637.046705	1073.156789	-569.067181	723.749830	858.690809	-459.475920	0.000000	0.000000	-0.000000	313.037087	1206.976148	-430.198549	338.777289	1164.474576	-119.144092	313.535573	1150.360327	-411.460550	351.659068	1114.851730	-146.376103	195.779616	1219.565292	-191.901088	179.628605	1233.271645	-296.692572	259.778504	1046.016239	-85.578808	254.054678	1087.859433	-467.226867	297.088656	926.949713	-65.535610	321.822737	848.708759	-75.181290	342.863511	761.999947	-85.990891	373.577270	863.613557	-93.655240	348.641562	646.632519	-110.260328	288.966984	544.759693	-76.244374	258.654431	465.747139	-80.713640	219.194883	386.358326	-89.515315	302.696971	447.771273	-117.880619	155.623694	286.381361	-111.735767	193.978043	281.058656	-185.724033	109.813565	290.758034	-163.179734	318.518408	117.881755	-141.407777	215.492586	155.981015	-74.509198	341.938581	1005.757934	-485.581390	426.879645	982.318452	-499.191783	444.164099	1032.938040	-487.727435	506.311772	949.327460	-496.795333	589.334982	867.427373	-489.268284	486.875422	828.099299	-501.143982	421.114346	774.579772	-482.166875	355.892782	724.854568	-457.793782	461.519683	733.412169	-460.962508	258.558978	644.111235	-425.436724	293.754878	635.761644	-348.582451	202.404774	650.277382	-377.670389	381.285352	439.237197	-383.765725	292.140049	498.361162	-450.716992	-229.770865	890.435882	-255.198527	-22.736635	80.438909	-456.394586	-22.836874	80.315165	-56.140424	
1501	7.5050	728.616151	1359.139863	-133.081111	711.007135	1343.412365	-467.180985	686.111158	1429.717900	-290.818970	677.376216	1268.633580	-296.553308	658.406800	1087.625027	-16.282859	737.364839	853.756596	-85.039314	636.452154	1073.101676	-569.086033	723.612523	858.702897	-459.291504	0.000000	0.000000	-0.000000	313.274996	1208.376023	-428.766938	338.819336	1164.152100	-118.861394	313.645866	1151.888665	-410.760561	352.021143	1114.940913	-145.949714	195.511903	1219.442390	-191.149765	179.222937	1233.768414	-295.695671	259.971334	1045.732574	-85.449088	255.165608	1089.678342	-467.030114	297.744090	927.136156	-65.575716	322.362790	848.857185	-75.119000	343.252391	762.059960	-85.697340	373.916573	863.724656	-93.958322	347.927079	646.617489	-110.033508	286.551087	545.710902	-76.158052	254.798007	467.263291	-80.671536	213.976811	388.617728	-89.651562	298.621633	448.520163	-117.773878	148.647702	289.810792	-111.905291	187.248007	284.198654	-185.639991	103.238348	294.928712	-163.446979	308.321409	117.918811	-141.253884	206.009705	158.234020	-74.499837	343.242538	1007.493182	-485.287487	428.270427	984.559939	-498.553793	445.279827	1035.248423	-487.249482	507.787837	951.931606	-496.145894	591.728512	871.492914	-488.418891	489.895503	830.584994	-500.498992	425.015697	775.700739	-482.027707	360.721985	724.646076	-457.907626	466.501685	734.846940	-460.662442	264.512918	641.098547	-425.613707	299.499005	633.983102	-348.821299	207.466311	646.247707	-378.046057	391.832543	440.237678	-384.350329	301.124350	496.720310	-451.178571	-229.813720	890.446946	-255.266646	-22.741279	80.440117	-456.406185	-22.830110	80.318505	-56.157332	
1502	7.5100	728.729174	1359.554838	-133.519393	710.175262	1343.941866	-467.642130	685.774202	1429.956555	-290.983279	677.125135	1268.704638	-296.678798	659.241163	1087.691830	-16.393972	737.404101	853.597853	-85.108162	636.019957	1073.092112	-569.014273	723.439391	858.758469	-459.142419	0.000000	0.000000	-0.000000	313.405525	1210.134235	-427.443390	338.644100	1164.577596	-118.357948	313.696787	1153.537578	-410.203356	352.240657	1115.362832	-145.513581	195.192786	1219.434798	-190.530242	178.801602	1234.291892	-294.739460	260.222256	1045.688885	-85.371747	256.379895	1091.669251	-466.769596	298.875356	927.569094	-65.942170	323.512305	849.265070	-75.285429	344.495731	762.478008	-85.790620	374.884242	864.194792	-94.493331	348.023664	646.817918	-109.894952	284.703944	547.014129	-76.055978	251.451426	469.155213	-80.644511	209.217832	391.346660	-89.658999	294.812771	449.806300	-118.112969	142.164956	293.888675	-111.924095	180.791737	287.488231	-185.564295	96.970884	299.911234	-163.655552	298.184442	118.506394	-141.109761	196.733299	161.119589	-74.489295	344.420706	1009.334586	-485.049081	429.523256	986.622785	-497.895757	446.425483	1037.357319	-486.537649	509.064453	954.089963	-495.361861	593.857096	874.787654	-487.409704	492.630372	832.281079	-499.466696	428.592913	776.060973	-481.747996	365.175998	723.683925	-457.989379	470.776200	736.181844	-460.826945	269.857424	637.856756	-425.997716	304.907434	631.431252	-349.021213	212.402517	641.452162	-378.479011	402.192163	440.147146	-384.177608	309.928033	494.390674	-451.652978	-229.846307	890.442960	-255.370110	-22.745910	80.445102	-456.421820	-22.829983	80.328428	-56.159171	
1503	7.5150	728.755939	1359.930179	-133.978985	709.348104	1344.510380	-467.994166	685.371724	1430.274243	-291.116535	676.755022	1268.819835	-296.771544	659.907161	1087.858034	-16.514028	737.423205	853.450743	-85.166814	635.706582	1073.123117	-568.849350	723.501594	858.909890	-459.168563	0.000000	0.000000	-0.000000	313.514088	1212.200053	-426.159031	338.502107	1165.496760	-117.878235	313.688747	1155.075801	-409.795602	352.432774	1116.095013	-145.030853	194.866293	1219.527334	-190.085336	178.403263	1234.836639	-293.932634	260.564535	1046.009867	-85.340160	257.499734	1093.757059	-466.435451	300.286240	928.123485	-66.582347	325.224125	849.954149	-75.705094	346.534447	763.153877	-86.206710	376.367563	864.865492	-95.402476	348.967136	647.411081	-109.936917	283.368582	548.683485	-76.045043	248.570926	471.533045	-80.689588	204.830468	394.467128	-89.746334	291.612799	451.259751	-118.025108	135.444530	298.405269	-112.464316	174.807186	290.806578	-185.584600	91.125494	305.483716	-163.921886	288.166270	119.720254	-140.996292	187.692662	164.614508	-74.474938	345.552623	1011.112779	-484.725997	430.636167	988.387265	-497.189828	447.496805	1039.155320	-485.646332	510.101423	955.743994	-494.443876	595.335685	877.332367	-486.454026	494.977652	833.294542	-498.174618	431.862507	775.633507	-481.332950	369.397609	721.966337	-457.957424	474.728731	736.391795	-460.586875	275.123297	633.580657	-426.395106	310.107827	628.137064	-349.167101	217.250136	635.925421	-378.930387	412.434234	439.730125	-384.253549	318.541379	491.434544	-452.111410	-229.884237	890.453721	-255.469719	-22.749593	80.444275	-456.438732	-22.849690	80.359455	-56.191946	
